<?xml version="1.0"?>
<svg xmlns="http://www.w3.org/2000/svg" height="512px" viewBox="0 0 64 64" width="512px"><g><g id="outline"><path d="m45 6h2v2h-2z" data-original="#000000" class="active-path" data-old_color="#000000" fill="#FF416A"/><path d="m41 6h2v2h-2z" data-original="#000000" class="active-path" data-old_color="#000000" fill="#FF416A"/><path d="m49 6h2v2h-2z" data-original="#000000" class="active-path" data-old_color="#000000" fill="#FF416A"/><path d="m43 10h2v2h-2z" data-original="#000000" class="active-path" data-old_color="#000000" fill="#FF416A"/><path d="m47 10h2v2h-2z" data-original="#000000" class="active-path" data-old_color="#000000" fill="#FF416A"/><path d="m13 6h2v2h-2z" data-original="#000000" class="active-path" data-old_color="#000000" fill="#FF416A"/><path d="m17 6h2v2h-2z" data-original="#000000" class="active-path" data-old_color="#000000" fill="#FF416A"/><path d="m21 6h2v2h-2z" data-original="#000000" class="active-path" data-old_color="#000000" fill="#FF416A"/><path d="m15 10h2v2h-2z" data-original="#000000" class="active-path" data-old_color="#000000" fill="#FF416A"/><path d="m19 10h2v2h-2z" data-original="#000000" class="active-path" data-old_color="#000000" fill="#FF416A"/><path d="m7 57.939a3.675 3.675 0 0 0 1.047 2.748 4.094 4.094 0 0 0 2.953 1.313h15a4.091 4.091 0 0 0 2.951-1.314 3.678 3.678 0 0 0 1.047-2.748l-2-31.991a6.433 6.433 0 0 0 -1.754-4.223 2.992 2.992 0 0 0 -.053-5.477l1.785-8.03a.988.988 0 0 0 .024-.217 5.937 5.937 0 0 0 -6-6h-7a5.936 5.936 0 0 0 -6 6 .931.931 0 0 0 .024.217l1.785 8.034a2.992 2.992 0 0 0 -.051 5.47 6.411 6.411 0 0 0 -1.758 4.217zm8-53.939h7a3.955 3.955 0 0 1 4 3.9l-1.8 8.1h-11.4l-1.8-8.1a3.956 3.956 0 0 1 4-3.9zm11 15a1 1 0 0 1 -1 1h-13a1 1 0 0 1 0-2h13a1 1 0 0 1 1 1zm-15.006 7.053a3.956 3.956 0 0 1 4.006-4.053h7a3.959 3.959 0 0 1 4 4.062l.306 4.938h-15.621zm15.437 6.947 1.569 25.061a1.7 1.7 0 0 1 -.508 1.254 2.111 2.111 0 0 1 -1.492.685h-15a2.115 2.115 0 0 1 -1.5-.685 1.7 1.7 0 0 1 -.507-1.253l1.567-25.062z" data-original="#000000" class="active-path" data-old_color="#000000" fill="#FF416A"/><path d="m34 57.939a3.675 3.675 0 0 0 1.047 2.748 4.094 4.094 0 0 0 2.953 1.313h15a4.091 4.091 0 0 0 2.951-1.314 3.678 3.678 0 0 0 1.047-2.748l-2-31.991a6.433 6.433 0 0 0 -1.754-4.223 2.992 2.992 0 0 0 -.053-5.477l1.785-8.03a.988.988 0 0 0 .024-.217 5.937 5.937 0 0 0 -6-6h-7a5.936 5.936 0 0 0 -6 6 .931.931 0 0 0 .024.217l1.785 8.034a2.992 2.992 0 0 0 -.051 5.47 6.411 6.411 0 0 0 -1.758 4.217zm8-53.939h7a3.955 3.955 0 0 1 4 3.9l-1.8 8.1h-11.4l-1.8-8.1a3.956 3.956 0 0 1 4-3.9zm11 15a1 1 0 0 1 -1 1h-13a1 1 0 0 1 0-2h13a1 1 0 0 1 1 1zm-15.006 7.053a3.956 3.956 0 0 1 4.006-4.053h7a3.959 3.959 0 0 1 4 4.062l.556 8.938h-16.121zm15.687 10.947 1.319 21.061a1.7 1.7 0 0 1 -.508 1.254 2.111 2.111 0 0 1 -1.492.685h-15a2.115 2.115 0 0 1 -1.5-.685 1.7 1.7 0 0 1 -.507-1.253l1.317-21.062z" data-original="#000000" class="active-path" data-old_color="#000000" fill="#FF416A"/><path d="m40 39h2v4h-2z" data-original="#000000" class="active-path" data-old_color="#000000" fill="#FF416A"/><path d="m44 39h2v4h-2z" data-original="#000000" class="active-path" data-old_color="#000000" fill="#FF416A"/><path d="m48 39h2v4h-2z" data-original="#000000" class="active-path" data-old_color="#000000" fill="#FF416A"/><path d="m42 45h2v4h-2z" data-original="#000000" class="active-path" data-old_color="#000000" fill="#FF416A"/><path d="m46 45h2v4h-2z" data-original="#000000" class="active-path" data-old_color="#000000" fill="#FF416A"/><path d="m39 51h2v4h-2z" data-original="#000000" class="active-path" data-old_color="#000000" fill="#FF416A"/><path d="m43 51h2v4h-2z" data-original="#000000" class="active-path" data-old_color="#000000" fill="#FF416A"/><path d="m47 51h2v4h-2z" data-original="#000000" class="active-path" data-old_color="#000000" fill="#FF416A"/><path d="m51 51h2v4h-2z" data-original="#000000" class="active-path" data-old_color="#000000" fill="#FF416A"/><path d="m50 45h2v4h-2z" data-original="#000000" class="active-path" data-old_color="#000000" fill="#FF416A"/><path d="m24 51h2v7h-2z" data-original="#000000" class="active-path" data-old_color="#000000" fill="#FF416A"/><path d="m24 47h2v2h-2z" data-original="#000000" class="active-path" data-old_color="#000000" fill="#FF416A"/></g></g> </svg>
